<svg width="36" height="36" viewBox="0 0 36 36" fill="none" xmlns="http://www.w3.org/2000/svg">
<path d="M7.53315 25.8167C6.03107 24.2213 5.22461 22.4319 5.22461 19.5313C5.22461 14.4271 8.80773 9.8523 14.0184 7.59043L15.3207 9.60001C10.4571 12.2308 9.50628 15.6448 9.12711 17.7973C9.91023 17.3919 10.9354 17.2504 11.9402 17.3438C14.5711 17.5873 16.6448 19.7471 16.6448 22.4319C16.6448 23.7856 16.1071 25.0839 15.1498 26.0411C14.1926 26.9983 12.8944 27.5361 11.5407 27.5361C10.792 27.5295 10.0522 27.3741 9.36418 27.0789C8.67617 26.7838 8.05376 26.3547 7.53315 25.8167ZM22.1165 25.8167C20.6144 24.2213 19.8079 22.4319 19.8079 19.5313C19.8079 14.4271 23.3911 9.8523 28.6017 7.59043L29.904 9.60001C25.0404 12.2308 24.0896 15.6448 23.7104 17.7973C24.4936 17.3919 25.5188 17.2504 26.5236 17.3438C29.1544 17.5873 31.2282 19.7471 31.2282 22.4319C31.2282 23.7856 30.6904 25.0839 29.7332 26.0411C28.776 26.9983 27.4777 27.5361 26.124 27.5361C25.3754 27.5295 24.6355 27.3741 23.9475 27.0789C23.2595 26.7838 22.6371 26.3547 22.1165 25.8167Z" fill="#FF4900"/>
</svg>
